<svg xmlns="http://www.w3.org/2000/svg" xmlns:xlink="http://www.w3.org/1999/xlink" width="500" zoomAndPan="magnify" viewBox="0 0 375 374.999991" height="500" preserveAspectRatio="xMidYMid meet" version="1.0"><defs><clipPath id="b81f5ab563"><path d="M 40.140625 272 L 370.148438 272 L 370.148438 283.480469 L 40.140625 283.480469 Z M 40.140625 272 " clip-rule="nonzero"/></clipPath><clipPath id="667f4d2f86"><path d="M 0 91.496094 L 368 91.496094 L 368 280 L 0 280 Z M 0 91.496094 " clip-rule="nonzero"/></clipPath></defs><path fill="#d19119" d="M 1.796875 147.820312 C 1.796875 147.820312 2.632812 155.789062 6.113281 157.796875 C 9.597656 159.789062 9.597656 162.203125 9.597656 162.203125 L 30.914062 154.589844 L 32.476562 254.652344 L 41.054688 260 L 289.25 254.355469 L 365.679688 251.347656 L 363.015625 205.640625 L 316.667969 173.964844 L 303.300781 123.609375 L 218.425781 94.320312 L 134.441406 118.371094 L 103.050781 116.34375 L 1.796875 147.820312 " fill-opacity="1" fill-rule="evenodd"/><path fill="#ffffff" d="M 220.078125 104.5625 L 223.328125 120.320312 C 223.328125 120.320312 281.058594 134.714844 285.160156 131.839844 C 289.25 128.953125 285.160156 126.679688 285.160156 126.679688 L 220.078125 104.5625 " fill-opacity="1" fill-rule="evenodd"/><path fill="#ffffff" d="M 243.101562 167.453125 L 289.324219 175.9375 L 331.449219 202.90625 L 338.863281 252.910156 L 287.351562 253.066406 L 285.003906 200.78125 L 243.101562 167.453125 " fill-opacity="1" fill-rule="evenodd"/><path fill="#fefefe" d="M 293.226562 241.292969 L 292.476562 208.671875 L 308.527344 209.472656 L 309.285156 241.207031 Z M 353.722656 241.648438 L 353.050781 211.800781 L 364.292969 212.660156 L 365.328125 241.582031 L 353.722656 241.648438 " fill-opacity="1" fill-rule="evenodd"/><g clip-path="url(#b81f5ab563)"><path fill="#141515" d="M 47.257812 275.582031 C 68.53125 275.304688 164.363281 274.058594 227.660156 272.628906 C 299.210938 271.019531 365.660156 273.875 368.613281 275.171875 C 371.566406 276.464844 370.738281 280.125 361.792969 280.246094 C 258.664062 281.703125 152.371094 286.921875 47.402344 279.894531 C 38.925781 279.316406 37.601562 275.703125 47.257812 275.582031 " fill-opacity="1" fill-rule="evenodd"/></g><path fill="#fefefe" d="M 139.773438 120.15625 L 142.496094 121.667969 L 210.542969 102.875 L 224.9375 163.648438 C 224.9375 163.648438 279.207031 201.078125 281.148438 200.921875 C 283.097656 200.757812 282.710938 198.949219 282.710938 198.949219 L 231.78125 160.585938 L 216.78125 93.757812 L 139.773438 120.15625 " fill-opacity="1" fill-rule="evenodd"/><path fill="#fefefe" d="M 3.671875 152.273438 L 103.007812 122.550781 L 103.523438 117.722656 L 1.796875 147.820312 L 3.671875 152.273438 " fill-opacity="1" fill-rule="evenodd"/><g clip-path="url(#667f4d2f86)"><path fill="#141515" d="M 26.914062 159.21875 L 29.613281 161.941406 L 29.613281 158.480469 Z M 33.910156 157.300781 L 33.910156 166.246094 L 40.890625 173.261719 L 40.890625 155.472656 Z M 120.761719 125.933594 L 158.15625 127.675781 L 158.5625 160.9375 Z M 315.382812 175.320312 L 286.855469 170.285156 C 286.855469 170.285156 280.351562 142.476562 279.589844 141.640625 C 278.933594 140.910156 282.25 163.800781 283.109375 169.632812 L 236.476562 161.410156 L 285.300781 197.894531 L 355.664062 203.28125 L 316.359375 176.90625 C 315.921875 176.609375 315.621094 176.179688 315.488281 175.707031 Z M 224.726562 119.386719 L 305.789062 140.636719 L 305.195312 138.464844 C 303.6875 137.679688 301.351562 136.460938 300.050781 135.730469 C 298 134.597656 231.703125 108.3125 231.25 107.550781 C 230.84375 106.867188 290.8125 124.796875 302.375 128.269531 L 301.546875 125.273438 L 219.714844 97.046875 Z M 294.230469 210.480469 L 294.902344 239.578125 L 307.53125 239.511719 L 306.847656 211.105469 Z M 291.519531 241.328125 L 290.769531 208.703125 C 290.746094 207.757812 291.496094 206.984375 292.441406 206.960938 C 292.488281 206.960938 292.519531 206.960938 292.566406 206.960938 L 308.601562 207.769531 C 309.527344 207.808594 310.253906 208.582031 310.230469 209.5 L 311.003906 241.175781 C 311.027344 242.121094 310.277344 242.90625 309.328125 242.925781 L 293.238281 243.003906 C 292.300781 243.003906 291.53125 242.253906 291.519531 241.328125 Z M 363.105469 239.882812 L 361.859375 214.195312 L 354.804688 213.652344 L 355.398438 239.929688 Z M 363.597656 250.1875 L 363.265625 243.3125 L 353.734375 243.355469 C 352.796875 243.355469 352.039062 242.605469 352.015625 241.679688 L 351.34375 211.835938 C 351.320312 210.886719 352.070312 210.117188 353.019531 210.089844 C 353.074219 210.089844 353.128906 210.089844 353.183594 210.089844 L 361.691406 210.742188 L 361.574219 208.042969 L 345.929688 206.839844 L 346.480469 237.328125 C 346.625 240.226562 345.621094 243.246094 342.050781 242.9375 L 325.15625 242.9375 C 323.5 242.9375 320.957031 242.90625 319.414062 241.792969 C 318.023438 240.785156 317.550781 238.804688 317.519531 237.171875 L 316.8125 204.605469 L 286.945312 202.324219 C 286.964844 208.859375 287.042969 238.332031 286.636719 238.398438 C 286.226562 238.460938 283.695312 207.976562 283.164062 201.648438 L 230.503906 162.300781 C 230.109375 162.003906 229.808594 161.578125 229.699219 161.058594 L 215.203125 96.507812 L 139.972656 120.453125 C 139.699219 120.566406 139.398438 120.621094 139.082031 120.597656 L 105.210938 118.617188 C 105.109375 120.832031 104.734375 123.035156 104.152344 125.160156 L 112.816406 125.566406 L 158.65625 168.003906 L 159.238281 215.328125 L 40.8125 222.226562 L 40.890625 218.808594 L 40.890625 180.542969 L 33.910156 173.535156 L 33.910156 254.144531 L 41.097656 258.355469 L 68.542969 257.386719 C 68.453125 256.371094 68.398438 255.347656 68.398438 254.300781 C 68.398438 240.160156 77.25 228.6875 88.160156 228.6875 C 99.070312 228.6875 107.921875 240.160156 107.921875 254.300781 C 107.921875 254.980469 107.898438 255.65625 107.863281 256.328125 L 108.441406 256.273438 L 214.699219 253.738281 C 214.269531 251.425781 214.035156 249 214.035156 246.507812 C 214.035156 229.304688 224.792969 215.363281 238.066406 215.363281 C 251.335938 215.363281 262.089844 229.304688 262.089844 246.507812 C 262.089844 248.390625 261.957031 250.234375 261.707031 252.03125 C 295.308594 252.03125 329.519531 251.015625 363.597656 250.1875 Z M 170.710938 240.742188 L 168.59375 136.183594 L 214.058594 123.152344 L 222.3125 159.601562 C 222.3125 159.601562 222.53125 208.472656 221.554688 208.085938 C 220.574219 207.710938 218.832031 160.585938 218.832031 160.585938 L 222.3125 159.601562 L 175.550781 172.632812 L 174.988281 180.523438 L 184.960938 178.042969 C 186.339844 177.699219 187.726562 178.550781 188.070312 179.925781 C 188.414062 181.304688 187.566406 182.691406 186.1875 183.035156 L 174.601562 185.914062 Z M 348.542969 260.871094 C 345.300781 270.832031 338.789062 277.644531 331.285156 277.644531 C 325.5625 277.644531 320.800781 277.644531 315.09375 277.644531 C 308.304688 277.644531 302.320312 272.066406 298.847656 263.625 C 282.28125 264.472656 267.84375 265.222656 267.84375 265.222656 L 267.261719 265.234375 C 262.875 272.773438 255.90625 277.644531 248.058594 277.644531 C 241.003906 277.644531 245.128906 277.644531 238.066406 277.644531 C 230.515625 277.644531 223.777344 273.125 219.371094 266.074219 C 205.648438 266.300781 190.03125 266.558594 173.941406 266.820312 C 170.558594 274.636719 164.109375 279.914062 156.703125 279.914062 C 150.894531 279.914062 154.277344 279.914062 148.46875 279.914062 C 141.273438 279.914062 134.976562 274.921875 131.519531 267.46875 C 125.269531 267.558594 119.140625 267.648438 113.222656 267.726562 C 109.738281 275.042969 103.5 279.914062 96.390625 279.914062 C 90.585938 279.914062 93.96875 279.914062 88.160156 279.914062 C 81.207031 279.914062 75.085938 275.25 71.558594 268.210938 C 57.34375 268.320312 48.183594 268.308594 47.523438 268.097656 C 45.417969 267.425781 40.59375 263.734375 37.328125 261.113281 L 30.851562 257.308594 C 30.121094 256.96875 29.613281 256.226562 29.613281 255.371094 L 29.613281 169.222656 L 21.941406 161.519531 C 21.714844 161.292969 21.535156 161.015625 21.414062 160.726562 L 10.117188 163.835938 C 9.753906 163.945312 9.355469 163.945312 8.980469 163.792969 C 6.359375 162.777344 4.230469 160.628906 2.71875 157.839844 C 1.199219 155.039062 0.285156 151.578125 0.0859375 147.996094 C 0 147.203125 0.496094 146.433594 1.277344 146.1875 L 102.917969 114.226562 C 103.878906 113.910156 135.078125 116.070312 138.9375 116.296875 L 215.953125 91.777344 C 216.429688 91.578125 216.957031 91.554688 217.472656 91.734375 L 304.003906 121.578125 L 304.003906 121.589844 C 304.644531 121.8125 305.171875 122.328125 305.371094 123.046875 L 319.402344 173.800781 L 364.691406 204.1875 C 365.339844 204.558594 365.769531 205.265625 365.757812 206.058594 L 367.875 250.035156 C 367.984375 252.414062 353.40625 259.28125 348.542969 260.871094 Z M 101.792969 118.171875 L 3.613281 149.046875 C 3.898438 151.679688 4.628906 154.171875 5.730469 156.199219 C 6.765625 158.117188 8.121094 159.601562 9.730469 160.386719 C 37.527344 152.757812 65.3125 145.132812 93.140625 137.496094 C 95.664062 135.125 98.058594 131.632812 99.6875 127.640625 C 100.914062 124.664062 101.695312 121.421875 101.792969 118.171875 " fill-opacity="1" fill-rule="nonzero"/></g><path fill="#fefefe" d="M 150.632812 196.335938 L 154.386719 195.929688 L 154.453125 209.652344 L 142.683594 210.433594 L 150.398438 197.152344 C 150.554688 196.902344 150.617188 196.613281 150.632812 196.335938 Z M 123.121094 199.28125 L 146.660156 196.757812 L 138.550781 210.707031 L 115.59375 212.242188 L 123.085938 199.347656 C 123.097656 199.328125 123.109375 199.300781 123.121094 199.28125 Z M 98.34375 201.9375 L 118.898438 199.734375 L 111.46875 212.515625 L 91.421875 213.851562 Z M 76.421875 204.285156 L 94.125 202.390625 L 87.289062 214.128906 L 70.019531 215.28125 Z M 47.777344 216.773438 L 55.359375 206.542969 L 72.191406 204.738281 L 65.898438 215.558594 Z M 52.703125 194.5 L 52.703125 164.417969 L 98.089844 177.824219 L 98.089844 198.664062 L 85.589844 199.566406 L 52.703125 194.5 " fill-opacity="1" fill-rule="evenodd"/><path fill="#d19119" d="M 67.859375 162.148438 C 66.699219 162.378906 65.566406 161.644531 65.332031 160.476562 C 65.101562 159.316406 65.84375 158.191406 66.996094 157.949219 L 121.246094 146.796875 C 122.40625 146.554688 123.527344 147.304688 123.769531 148.460938 C 124.003906 149.617188 123.265625 150.753906 122.09375 150.984375 L 67.859375 162.148438 " fill-opacity="1" fill-rule="nonzero"/><path fill="#d19119" d="M 85.667969 167.519531 C 84.511719 167.757812 83.375 167.007812 83.144531 165.855469 C 82.914062 164.695312 83.652344 163.558594 84.820312 163.328125 L 129.964844 154.039062 C 131.125 153.796875 132.257812 154.542969 132.488281 155.703125 C 132.730469 156.859375 131.980469 157.992188 130.824219 158.226562 L 85.667969 167.519531 " fill-opacity="1" fill-rule="nonzero"/><path fill="#fefefe" d="M 88.160156 237.625 C 94.164062 237.625 99.039062 245.085938 99.039062 254.300781 C 99.039062 263.515625 94.164062 270.976562 88.160156 270.976562 C 82.152344 270.976562 77.292969 263.515625 77.292969 254.300781 C 77.292969 245.085938 82.152344 237.625 88.160156 237.625 Z M 238.066406 226.230469 C 245.359375 226.230469 251.277344 235.308594 251.277344 246.507812 C 251.277344 257.707031 245.359375 266.777344 238.066406 266.777344 C 230.765625 266.777344 224.847656 257.707031 224.847656 246.507812 C 224.847656 235.308594 230.765625 226.230469 238.066406 226.230469 " fill-opacity="1" fill-rule="evenodd"/><path fill="#fefefe" d="M 285.265625 150.589844 L 289.371094 167.023438 L 303.453125 169.867188 C 303.453125 169.867188 301.339844 165.277344 294.21875 158.6875 C 287.089844 152.097656 285.265625 150.589844 285.265625 150.589844 Z M 229.28125 124.523438 L 236.554688 157.785156 L 280.046875 166.273438 C 280.046875 166.273438 261.640625 146.949219 248.988281 137.78125 C 236.332031 128.609375 229.28125 124.523438 229.28125 124.523438 " fill-opacity="1" fill-rule="evenodd"/><path fill="#eeeeee" d="M 334.171875 236.347656 C 334.183594 237.0625 333.621094 237.648438 332.902344 237.65625 C 332.199219 237.667969 331.613281 237.097656 331.601562 236.390625 L 331.074219 208.425781 C 331.0625 207.722656 331.625 207.140625 332.332031 207.128906 C 333.046875 207.117188 333.632812 207.679688 333.644531 208.394531 Z M 325.804688 236.128906 C 325.820312 236.832031 325.242188 237.414062 324.539062 237.425781 C 323.832031 237.4375 323.25 236.875 323.238281 236.15625 L 322.710938 208.207031 C 322.699219 207.503906 323.261719 206.917969 323.964844 206.90625 C 324.671875 206.894531 325.253906 207.457031 325.265625 208.164062 Z M 341.601562 236.347656 C 341.613281 237.0625 341.050781 237.648438 340.34375 237.65625 C 339.625 237.667969 339.042969 237.097656 339.03125 236.390625 L 338.503906 208.425781 C 338.492188 207.722656 339.054688 207.140625 339.769531 207.128906 C 340.476562 207.117188 341.058594 207.679688 341.070312 208.394531 L 341.601562 236.347656 " fill-opacity="1" fill-rule="nonzero"/></svg>