<svg xmlns="http://www.w3.org/2000/svg" xmlns:xlink="http://www.w3.org/1999/xlink" width="500" zoomAndPan="magnify" viewBox="0 0 375 374.999991" height="500" preserveAspectRatio="xMidYMid meet" version="1.0"><defs><clipPath id="7a6d9efcd5"><path d="M 70.035156 256 L 337.5 256 L 337.5 265.296875 L 70.035156 265.296875 Z M 70.035156 256 " clip-rule="nonzero"/></clipPath><clipPath id="b3e718bcea"><path d="M 37.5 109.6875 L 336 109.6875 L 336 263 L 37.5 263 Z M 37.5 109.6875 " clip-rule="nonzero"/></clipPath></defs><path fill="#d19119" d="M 38.957031 155.339844 C 38.957031 155.339844 39.632812 161.800781 42.457031 163.429688 C 45.28125 165.042969 45.28125 167 45.28125 167 L 62.554688 160.828125 L 63.824219 241.933594 L 70.777344 246.265625 L 271.945312 241.691406 L 333.898438 239.253906 L 331.734375 202.207031 L 294.171875 176.53125 L 283.335938 135.714844 L 214.542969 111.980469 L 146.46875 131.472656 L 121.027344 129.828125 L 38.957031 155.339844 " fill-opacity="1" fill-rule="evenodd"/><path fill="#ffffff" d="M 215.878906 120.28125 L 218.515625 133.050781 C 218.515625 133.050781 265.308594 144.71875 268.632812 142.386719 C 271.945312 140.046875 268.632812 138.207031 268.632812 138.207031 L 215.878906 120.28125 " fill-opacity="1" fill-rule="evenodd"/><path fill="#ffffff" d="M 234.542969 171.253906 L 272.007812 178.132812 L 306.152344 199.992188 L 312.164062 240.523438 L 270.410156 240.644531 L 268.507812 198.265625 L 234.542969 171.253906 " fill-opacity="1" fill-rule="evenodd"/><path fill="#fefefe" d="M 275.167969 231.105469 L 274.5625 204.664062 L 287.570312 205.3125 L 288.1875 231.035156 Z M 324.207031 231.390625 L 323.660156 207.199219 L 332.773438 207.898438 L 333.613281 231.335938 L 324.207031 231.390625 " fill-opacity="1" fill-rule="evenodd"/><g clip-path="url(#7a6d9efcd5)"><path fill="#141515" d="M 75.804688 258.898438 C 93.046875 258.671875 170.722656 257.664062 222.027344 256.503906 C 280.023438 255.199219 333.878906 257.511719 336.277344 258.566406 C 338.667969 259.613281 338 262.578125 330.746094 262.675781 C 247.15625 263.855469 161.003906 268.089844 75.921875 262.390625 C 69.050781 261.925781 67.980469 258.996094 75.804688 258.898438 " fill-opacity="1" fill-rule="evenodd"/></g><path fill="#fefefe" d="M 150.789062 132.917969 L 153 134.144531 L 208.152344 118.910156 L 219.820312 168.167969 C 219.820312 168.167969 263.808594 198.507812 265.378906 198.382812 C 266.960938 198.25 266.648438 196.785156 266.648438 196.785156 L 225.367188 165.6875 L 213.210938 111.523438 L 150.789062 132.917969 " fill-opacity="1" fill-rule="evenodd"/><path fill="#fefefe" d="M 40.476562 158.953125 L 120.992188 134.859375 L 121.410156 130.945312 L 38.957031 155.339844 L 40.476562 158.953125 " fill-opacity="1" fill-rule="evenodd"/><g clip-path="url(#b3e718bcea)"><path fill="#141515" d="M 59.3125 164.578125 L 61.503906 166.785156 L 61.503906 163.980469 Z M 64.984375 163.023438 L 64.984375 170.277344 L 70.644531 175.960938 L 70.644531 161.542969 Z M 135.382812 137.601562 L 165.691406 139.011719 L 166.023438 165.972656 Z M 293.128906 177.628906 L 270.007812 173.546875 C 270.007812 173.546875 264.738281 151.007812 264.121094 150.332031 C 263.585938 149.742188 266.273438 168.292969 266.972656 173.023438 L 229.171875 166.359375 L 268.746094 195.925781 L 325.777344 200.292969 L 293.921875 178.917969 C 293.566406 178.675781 293.324219 178.328125 293.214844 177.945312 Z M 219.648438 132.292969 L 285.355469 149.519531 L 284.875 147.757812 C 283.648438 147.121094 281.757812 146.132812 280.703125 145.542969 C 279.039062 144.621094 225.304688 123.316406 224.9375 122.699219 C 224.609375 122.144531 273.214844 136.679688 282.585938 139.496094 L 281.914062 137.066406 L 215.585938 114.1875 Z M 275.984375 206.128906 L 276.527344 229.710938 L 286.765625 229.660156 L 286.210938 206.636719 Z M 273.785156 231.132812 L 273.179688 204.691406 C 273.160156 203.921875 273.769531 203.296875 274.535156 203.277344 C 274.570312 203.277344 274.597656 203.277344 274.636719 203.277344 L 287.632812 203.929688 C 288.382812 203.964844 288.972656 204.59375 288.953125 205.332031 L 289.582031 231.007812 C 289.597656 231.777344 288.992188 232.410156 288.222656 232.429688 L 275.179688 232.492188 C 274.421875 232.492188 273.796875 231.882812 273.785156 231.132812 Z M 331.808594 229.960938 L 330.800781 209.140625 L 325.082031 208.699219 L 325.566406 230 Z M 332.210938 238.3125 L 331.941406 232.738281 L 324.214844 232.777344 C 323.453125 232.777344 322.839844 232.167969 322.824219 231.417969 L 322.277344 207.226562 C 322.257812 206.457031 322.867188 205.832031 323.636719 205.8125 C 323.679688 205.8125 323.722656 205.8125 323.769531 205.8125 L 330.664062 206.339844 L 330.566406 204.152344 L 317.890625 203.179688 L 318.335938 227.890625 C 318.453125 230.238281 317.640625 232.6875 314.746094 232.4375 L 301.050781 232.4375 C 299.710938 232.4375 297.648438 232.410156 296.398438 231.507812 C 295.269531 230.695312 294.886719 229.085938 294.859375 227.765625 L 294.285156 201.367188 L 270.078125 199.519531 C 270.09375 204.8125 270.160156 228.703125 269.828125 228.757812 C 269.5 228.808594 267.445312 204.097656 267.015625 198.972656 L 224.332031 167.078125 C 224.011719 166.839844 223.765625 166.492188 223.679688 166.070312 L 211.929688 113.75 L 150.953125 133.160156 C 150.730469 133.25 150.488281 133.292969 150.230469 133.277344 L 122.777344 131.667969 C 122.695312 133.464844 122.390625 135.25 121.917969 136.976562 L 128.941406 137.304688 L 166.09375 171.699219 L 166.570312 210.058594 L 70.578125 215.648438 L 70.644531 212.882812 L 70.644531 181.863281 L 64.984375 176.183594 L 64.984375 241.523438 L 70.8125 244.933594 L 93.054688 244.148438 C 92.984375 243.328125 92.9375 242.496094 92.9375 241.644531 C 92.9375 230.1875 100.113281 220.886719 108.957031 220.886719 C 117.800781 220.886719 124.976562 230.1875 124.976562 241.644531 C 124.976562 242.199219 124.957031 242.746094 124.929688 243.289062 L 125.394531 243.246094 L 211.519531 241.191406 C 211.171875 239.316406 210.984375 237.351562 210.984375 235.332031 C 210.984375 221.386719 219.703125 210.085938 230.460938 210.085938 C 241.214844 210.085938 249.933594 221.386719 249.933594 235.332031 C 249.933594 236.859375 249.828125 238.351562 249.621094 239.808594 C 276.859375 239.808594 304.589844 238.984375 332.210938 238.3125 Z M 175.867188 230.660156 L 174.152344 145.90625 L 211 135.347656 L 217.691406 164.890625 C 217.691406 164.890625 217.871094 204.5 217.078125 204.191406 C 216.28125 203.886719 214.871094 165.6875 214.871094 165.6875 L 217.691406 164.890625 L 179.789062 175.453125 L 179.332031 181.847656 L 187.417969 179.835938 C 188.535156 179.558594 189.660156 180.25 189.9375 181.363281 C 190.214844 182.480469 189.527344 183.605469 188.410156 183.882812 L 179.023438 186.214844 Z M 320.007812 246.972656 C 317.378906 255.046875 312.101562 260.570312 306.019531 260.570312 C 301.378906 260.570312 297.523438 260.570312 292.894531 260.570312 C 287.390625 260.570312 282.542969 256.046875 279.726562 249.207031 C 266.300781 249.890625 254.597656 250.5 254.597656 250.5 L 254.125 250.507812 C 250.570312 256.617188 244.921875 260.570312 238.5625 260.570312 C 232.84375 260.570312 236.1875 260.570312 230.460938 260.570312 C 224.339844 260.570312 218.882812 256.90625 215.308594 251.1875 C 204.1875 251.375 191.527344 251.582031 178.484375 251.796875 C 175.742188 258.128906 170.519531 262.40625 164.511719 262.40625 C 159.808594 262.40625 162.546875 262.40625 157.839844 262.40625 C 152.007812 262.40625 146.90625 258.359375 144.101562 252.320312 C 139.035156 252.394531 134.070312 252.464844 129.269531 252.527344 C 126.449219 258.460938 121.390625 262.40625 115.628906 262.40625 C 110.921875 262.40625 113.664062 262.40625 108.957031 262.40625 C 103.320312 262.40625 98.363281 258.628906 95.503906 252.921875 C 83.980469 253.011719 76.554688 253 76.019531 252.832031 C 74.3125 252.285156 70.402344 249.292969 67.757812 247.167969 L 62.503906 244.085938 C 61.914062 243.808594 61.503906 243.210938 61.503906 242.515625 L 61.503906 172.691406 L 55.285156 166.445312 C 55.097656 166.261719 54.957031 166.035156 54.859375 165.804688 L 45.699219 168.320312 C 45.40625 168.410156 45.082031 168.410156 44.78125 168.285156 C 42.652344 167.464844 40.929688 165.722656 39.703125 163.460938 C 38.472656 161.191406 37.730469 158.386719 37.570312 155.484375 C 37.5 154.839844 37.902344 154.214844 38.535156 154.019531 L 120.917969 128.113281 C 121.695312 127.855469 146.984375 129.605469 150.113281 129.792969 L 212.539062 109.914062 C 212.925781 109.753906 213.351562 109.738281 213.769531 109.882812 L 283.90625 134.074219 L 283.90625 134.078125 C 284.425781 134.261719 284.855469 134.679688 285.015625 135.261719 L 296.386719 176.398438 L 333.09375 201.027344 C 333.621094 201.332031 333.96875 201.902344 333.960938 202.546875 L 335.675781 238.191406 C 335.765625 240.121094 323.949219 245.6875 320.007812 246.972656 Z M 120.007812 131.3125 L 40.429688 156.335938 C 40.660156 158.46875 41.25 160.488281 42.144531 162.132812 C 42.984375 163.6875 44.082031 164.890625 45.386719 165.527344 C 67.917969 159.34375 90.4375 153.164062 112.996094 146.972656 C 115.039062 145.050781 116.980469 142.21875 118.300781 138.984375 C 119.292969 136.574219 119.929688 133.945312 120.007812 131.3125 " fill-opacity="1" fill-rule="nonzero"/></g><path fill="#fefefe" d="M 159.59375 194.667969 L 162.636719 194.335938 L 162.691406 205.457031 L 153.148438 206.09375 L 159.402344 195.328125 C 159.527344 195.121094 159.582031 194.890625 159.59375 194.667969 Z M 137.292969 197.050781 L 156.375 195.003906 L 149.800781 206.3125 L 131.191406 207.558594 L 137.265625 197.105469 C 137.277344 197.089844 137.285156 197.070312 137.292969 197.050781 Z M 117.210938 199.203125 L 133.871094 197.417969 L 127.851562 207.78125 L 111.601562 208.859375 Z M 99.441406 201.109375 L 113.789062 199.570312 L 108.25 209.085938 L 94.253906 210.023438 Z M 76.222656 211.230469 L 82.371094 202.9375 L 96.011719 201.476562 L 90.910156 210.246094 Z M 80.21875 193.175781 L 80.21875 168.792969 L 117.003906 179.660156 L 117.003906 196.550781 L 106.875 197.285156 L 80.21875 193.175781 " fill-opacity="1" fill-rule="evenodd"/><path fill="#d19119" d="M 92.503906 166.957031 C 91.5625 167.144531 90.644531 166.546875 90.457031 165.597656 C 90.265625 164.660156 90.867188 163.746094 91.804688 163.550781 L 135.773438 154.511719 C 136.714844 154.3125 137.625 154.921875 137.820312 155.859375 C 138.007812 156.796875 137.410156 157.71875 136.460938 157.90625 L 92.503906 166.957031 " fill-opacity="1" fill-rule="nonzero"/><path fill="#d19119" d="M 106.9375 171.308594 C 106 171.503906 105.078125 170.894531 104.890625 169.957031 C 104.703125 169.019531 105.304688 168.097656 106.25 167.910156 L 142.839844 160.382812 C 143.78125 160.1875 144.699219 160.789062 144.886719 161.730469 C 145.082031 162.667969 144.476562 163.585938 143.539062 163.777344 L 106.9375 171.308594 " fill-opacity="1" fill-rule="nonzero"/><path fill="#fefefe" d="M 108.957031 228.128906 C 113.824219 228.128906 117.773438 234.179688 117.773438 241.644531 C 117.773438 249.117188 113.824219 255.164062 108.957031 255.164062 C 104.089844 255.164062 100.148438 249.117188 100.148438 241.644531 C 100.148438 234.179688 104.089844 228.128906 108.957031 228.128906 Z M 230.460938 218.894531 C 236.375 218.894531 241.167969 226.253906 241.167969 235.332031 C 241.167969 244.40625 236.375 251.761719 230.460938 251.761719 C 224.546875 251.761719 219.746094 244.40625 219.746094 235.332031 C 219.746094 226.253906 224.546875 218.894531 230.460938 218.894531 " fill-opacity="1" fill-rule="evenodd"/><path fill="#fefefe" d="M 268.71875 157.585938 L 272.042969 170.90625 L 283.460938 173.210938 C 283.460938 173.210938 281.746094 169.492188 275.972656 164.148438 C 270.195312 158.808594 268.71875 157.585938 268.71875 157.585938 Z M 223.339844 136.457031 L 229.234375 163.417969 L 264.488281 170.296875 C 264.488281 170.296875 249.570312 154.636719 239.3125 147.203125 C 229.054688 139.769531 223.339844 136.457031 223.339844 136.457031 " fill-opacity="1" fill-rule="evenodd"/><path fill="#eeeeee" d="M 308.359375 227.09375 C 308.367188 227.675781 307.910156 228.148438 307.332031 228.15625 C 306.757812 228.167969 306.285156 227.703125 306.277344 227.128906 L 305.847656 204.464844 C 305.839844 203.894531 306.292969 203.421875 306.867188 203.410156 C 307.449219 203.402344 307.921875 203.859375 307.929688 204.4375 Z M 301.578125 226.917969 C 301.589844 227.488281 301.121094 227.960938 300.550781 227.972656 C 299.976562 227.976562 299.503906 227.523438 299.496094 226.941406 L 299.066406 204.289062 C 299.058594 203.714844 299.515625 203.242188 300.085938 203.234375 C 300.660156 203.222656 301.132812 203.679688 301.140625 204.253906 Z M 314.378906 227.09375 C 314.390625 227.675781 313.933594 228.148438 313.359375 228.15625 C 312.78125 228.167969 312.304688 227.703125 312.296875 227.128906 L 311.871094 204.464844 C 311.859375 203.894531 312.316406 203.421875 312.898438 203.410156 C 313.46875 203.402344 313.941406 203.859375 313.949219 204.4375 L 314.378906 227.09375 " fill-opacity="1" fill-rule="nonzero"/></svg>